<svg preserveAspectRatio="xMidYMid meet" version="1.1" viewBox="0 0 725.03 309.81" xmlns="http://www.w3.org/2000/svg">
  <defs>
    <linearGradient id="bottomgradient">
      <stop offset="0%" stop-color="#9156ad" />
      <stop offset="100%" stop-color="#ffca91" />
    </linearGradient>
  </defs>
 <g transform="translate(314.96 91.459)">
  <path fill="url(#bottomgradient)" d="m112.92-91.459c-19.487 2.1e-4 -35.342 15.855-35.342 35.342v119.64c8e-5 16.628-13.421 30.051-30.049 30.051-16.628 8e-5 -30.051-13.423-30.051-30.051v-3.2541h-4e-3v-26.119c8e-5 -19.488-15.854-35.342-35.342-35.342-19.487 2.1e-4 -35.342 15.854-35.342 35.342v45.247c-0.89636 15.815-13.955 28.314-30 28.314-16.628 8e-5 -30.049-13.423-30.049-30.051v-3.252h-0.03c-0.73313-18.845-16.29-33.953-35.312-33.953-19.487 2.1e-4 -35.342 15.856-35.342 35.344v45.721c7e-5 16.628-13.423 30.051-30.051 30.051-16.628 6e-5 -30.051-13.423-30.051-30.051v-3.2541h-0.2284v-1.1033c8e-5 -19.488-15.854-35.342-35.342-35.342-19.487 2.3e-4 -35.342 15.855-35.342 35.342v87.582h5.3e-4v13.605h724.93v-58.257h0.0956v-87.582c8e-5 -19.488-15.854-35.342-35.342-35.342-19.487 2.1e-4 -35.342 15.854-35.342 35.342v19.404h-0.0744v3.254c8e-5 16.628-13.423 30.05-30.051 30.05-14.978 6e-5 -27.352-10.892-29.66-25.207v-28.154c0-2.2242-0.20867-4.4004-0.60359-6.5117v-68.92c8e-5 -19.488-15.854-35.342-35.342-35.342-19.487 2.4e-4 -35.342 15.855-35.342 35.342v16.039c-0.88081 15.83-13.945 28.345-30 28.346-16.628 8e-5 -30.051-13.423-30.051-30.051v-66.877c1e-4 -19.488-15.855-35.342-35.342-35.342z" style="-inkscape-stroke:none;color:#000000;fill-rule:evenodd;"/>
 </g>
</svg>
