<svg preserveAspectRatio="xMidYMid meet" version="1.1" viewBox="0 0 258.54 135.61" xmlns="http://www.w3.org/2000/svg">
  <defs>
    <linearGradient id="topleftgradient">
      <stop offset="0%" stop-color="#9156ad" />
      <stop offset="100%" stop-color="#ffca91" />
    </linearGradient>
  </defs>
 <g transform="translate(42.734 -22.964)">
  <path fill="url(#topleftgradient)" d="m-42.734 22.965v50.927h0.0185v30.27c-4e-5 10.88 8.8516 19.732 19.732 19.732 10.88-1.2e-4 19.732-8.8521 19.732-19.732v-12.737c-5e-5 -9.2837 7.4943-16.778 16.778-16.778 9.2837-3e-5 16.777 7.4943 16.777 16.778v47.421c-4e-5 10.88 8.8532 19.732 19.733 19.732 10.88-1.2e-4 19.731-8.8521 19.73-19.732v-29.166c-4e-5 -9.2837 7.4943-16.778 16.778-16.778 9.2837-4e-5 16.778 7.4943 16.778 16.778v5.2092c-5e-5 10.88 8.8516 19.732 19.732 19.732 10.88-1.2e-4 19.732-8.8516 19.732-19.732v-21.481c-4e-5 -9.2837 7.4932-16.778 16.777-16.778 9.2837-3e-5 16.778 7.4943 16.778 16.778v1.8168h0.0845c0.92016 10.032 9.3797 17.915 19.647 17.915 10.88-1.2e-4 19.732-8.8516 19.732-19.732v-60.443h-0.0153v-9.9995z" style="-inkscape-stroke:none;color:#000000;fill-rule:evenodd;stroke-width:3.2505"/>
 </g>
</svg>
